<?xml version="1.0" encoding="UTF-8" standalone="no"?>
<!-- Created with Inkscape (http://www.inkscape.org/) -->

<svg
   width="195.62621mm"
   height="50.939095mm"
   viewBox="0 0 195.62621 50.939095"
   version="1.1"
   id="svg5"
   inkscape:export-filename="banner.png"
   inkscape:export-xdpi="96"
   inkscape:export-ydpi="96"
   xmlns:inkscape="http://www.inkscape.org/namespaces/inkscape"
   xmlns:sodipodi="http://sodipodi.sourceforge.net/DTD/sodipodi-0.dtd"
   xmlns="http://www.w3.org/2000/svg"
   xmlns:svg="http://www.w3.org/2000/svg">
  <sodipodi:namedview
     id="namedview7"
     pagecolor="#505050"
     bordercolor="#eeeeee"
     borderopacity="1"
     inkscape:showpageshadow="0"
     inkscape:pageopacity="0"
     inkscape:pagecheckerboard="0"
     inkscape:deskcolor="#505050"
     inkscape:document-units="mm"
     showgrid="false" />
  <defs
     id="defs2" />
  <g
     inkscape:label="Camada 1"
     inkscape:groupmode="layer"
     id="layer1"
     transform="translate(-8.7072908,-108.9894)">
    <g
       id="g6871">
      <g
         id="g9667">
        <rect
           style="fill:#faffaf;fill-opacity:1;stroke-width:0.600001"
           id="rect484"
           width="193.75246"
           height="47.620724"
           x="9.4322567"
           y="108.9894" />
        <path
           style="fill:#96c9f4;fill-opacity:1;stroke-width:0.586844"
           d="m 9.4175919,132.27534 c 21.0916021,-4.01598 32.3278221,-10.2836 56.0751581,0.74339 23.747339,11.02698 38.2237,-5.27358 38.2237,-5.27358 0,0 12.22914,-9.90589 33.69676,5.21313 21.4676,15.11902 50.14959,2.55205 50.14959,2.55205 l 15.63211,-7.97681 0.72687,29.07671 -194.9611959,2.35323 z"
           id="path6249"
           sodipodi:nodetypes="cscsccccc" />
        <path
           style="fill:#3fa2f6;fill-opacity:1;stroke-width:0.49634"
           d="m 9.3039547,139.81287 c 21.1227923,-2.86859 32.3756283,-7.3455 56.1580833,0.531 23.782457,7.87648 38.280232,-3.76688 38.280232,-3.76688 0,0 12.24724,-7.0757 33.74659,3.72369 21.49934,10.7994 50.22375,1.82292 50.22375,1.82292 l 15.65523,-5.69777 0.72795,20.76926 -195.2495191,1.68089 z"
           id="path6249-3"
           sodipodi:nodetypes="cscsccccc" />
        <path
           style="fill:#0f67b1;fill-opacity:1;stroke-width:0.437134"
           d="m 9.1658587,145.17056 c 21.1635473,-2.22075 32.4380943,-5.68661 56.2664353,0.41108 23.828343,6.09767 38.354086,-2.91618 38.354086,-2.91618 0,0 12.27087,-5.47774 33.8117,2.88274 21.54082,8.36049 50.32064,1.41124 50.32064,1.41124 l 15.68545,-4.411 0.72934,16.07878 -195.6262184,1.30128 z"
           id="path6249-3-6"
           sodipodi:nodetypes="cscsccccc" />
      </g>
    </g>
  </g>
</svg>
